<?xml version='1.0' encoding='UTF-8' standalone='no'?>
<!-- Created with Fritzing (http://www.fritzing.org/) -->
<svg xmlns="http://www.w3.org/2000/svg" x="0in" y="0in" height="1.18059in" version="1.2" xmlns:svg="http://www.w3.org/2000/svg" baseProfile="tiny"  viewBox="0 0 198.494 85.0025" width="2.75687in">
 <g partID="57640">
  <g  id="board">
   <rect stroke="black" height="84.4265" x="0.288" y="0.288" fill-opacity="0.5"  width="197.918" id="boardoutline" fill="none" stroke-width="0.5"/>
  </g>
 </g>
 <g partID="81161">
  <g transform="translate(56.2027,62.8657)">
   <g transform="matrix(0,1,-1,0,0,0)">
    <g gorn="0.2.0"  id="copper1">
     <circle stroke="black" cx="4.32001" gorn="0.2.0.0" r="1.584" cy="4.32001"  fill="none" id="connector0pin" stroke-width="1.152"/>
     <circle stroke="black" cx="4.32001" gorn="0.2.0.1" r="1.584" cy="11.52"  fill="none" id="connector1pin" stroke-width="1.152"/>
    </g>
   </g>
  </g>
 </g>
 <g partID="88221">
  <g transform="translate(104.983,34.2818)">
   <g transform="matrix(-1,0,0,-1,0,0)">
    <g  id="copper1">
     <!-- <rect width="55" x="10" y="15.5" fill="none" height="55" stroke="rgb(255, 191, 0)" stroke-width="20" />  -->
     <circle stroke="black" cx="2.7" r="1.98" cy="3.096"  fill="none" id="connector0pin" stroke-width="1.44"/>
     <circle stroke="black" cx="31.5" r="1.98" cy="3.096"  fill="none" id="connector1pin" stroke-width="1.44"/>
    </g>
   </g>
  </g>
 </g>
 <g partID="88191">
  <g transform="translate(76.1827,41.4818)">
   <g transform="matrix(-1,0,0,-1,0,0)">
    <g  id="copper1">
     <!-- <rect width="55" x="10" y="15.5" fill="none" height="55" stroke="rgb(255, 191, 0)" stroke-width="20" />  -->
     <circle stroke="black" cx="2.7" r="1.98" cy="3.096"  fill="none" id="connector0pin" stroke-width="1.44"/>
     <circle stroke="black" cx="31.5" r="1.98" cy="3.096"  fill="none" id="connector1pin" stroke-width="1.44"/>
    </g>
   </g>
  </g>
 </g>
 <g partID="69651">
  <g transform="translate(126.583,12.6818)">
   <g transform="matrix(-1,0,0,-1,0,0)">
    <g  id="copper1">
     <!-- <rect width="55" x="10" y="15.5" fill="none" height="55" stroke="rgb(255, 191, 0)" stroke-width="20" />  -->
     <circle stroke="black" cx="2.7" r="1.98" cy="3.096"  fill="none" id="connector0pin" stroke-width="1.44"/>
     <circle stroke="black" cx="31.5" r="1.98" cy="3.096"  fill="none" id="connector1pin" stroke-width="1.44"/>
    </g>
   </g>
  </g>
 </g>
 <g partID="72951">
  <g transform="translate(139.87,34.7322)">
   <g transform="matrix(-1,0,0,-1,0,0)">
    <g  id="copper1">
     <circle stroke="black" cx="8.7876" r="1.7008" cy="10.6336"  id="connector1pad" fill="none" stroke-width="1.13384"/>
     <rect stroke="black" x="7.0868" y="8.9328" height="3.4016"  width="3.4016" stroke-width="1.13384" fill="none"/>
     <circle stroke="black" cx="8.7876" r="1.7008" cy="3.5464"  id="connector0pad" fill="none" stroke-width="1.13384"/>
    </g>
   </g>
  </g>
 </g>
 <g partID="64031">
  <g transform="translate(99.4027,62.8658)">
   <g transform="matrix(0,1,-1,0,0,0)">
    <g gorn="0.2.0"  id="copper1">
     <circle stroke="black" gorn="0.2.0.0" cx="4.32" r="1.584" cy="4.32"  fill="none" stroke-width="1.152" id="connector0pin"/>
     <circle stroke="black" gorn="0.2.0.1" cx="4.32" r="1.584" cy="11.52"  fill="none" stroke-width="1.152" id="connector1pin"/>
     <circle stroke="black" gorn="0.2.0.2" cx="4.32" r="1.584" cy="18.72"  fill="none" stroke-width="1.152" id="connector2pin"/>
    </g>
   </g>
  </g>
 </g>
 <g partID="62841">
  <g transform="translate(-106.517,18.5858)">
   <g gorn="0.3"  id="copper1" stroke-width="0">
    <g  id="copper0">
     <g  stroke-width="0">
      <circle stroke="black" cx="122.4" gorn="0.3.0.0.0" r="2.052" cy="5.4"  connectorname="RTS_5V" fill="none" id="connector16pad" stroke-width="1.224"/>
      <circle stroke="black" cx="122.4" gorn="0.3.0.0.1" r="2.052" cy="12.6"  connectorname="RX_5V" fill="none" id="connector15pad" stroke-width="1.224"/>
      <circle stroke="black" cx="122.4" gorn="0.3.0.0.2" r="2.052" cy="19.8"  connectorname="TX_5V" fill="none" id="connector17pad" stroke-width="1.224"/>
      <circle stroke="black" cx="122.4" gorn="0.3.0.0.3" r="2.052" cy="27"  connectorname="VCC" fill="none" id="connector13pad" stroke-width="1.224"/>
      <circle stroke="black" cx="122.4" gorn="0.3.0.0.4" r="2.052" cy="34.2"  connectorname="CTS_5V" fill="none" id="connector14pad" stroke-width="1.224"/>
      <circle stroke="black" cx="122.4" gorn="0.3.0.0.5" r="2.052" cy="41.4"  connectorname="GND" fill="none" id="connector12pad" stroke-width="1.224"/>
     </g>
    </g>
   </g>
  </g>
 </g>
 <g partID="100371">
  <g transform="translate(55.1947,41.6978)">
   <g  id="copper1">
    <circle stroke="black" cx="3.888" r="1.66606" cy="3.888"  connectorname="1" id="connector0pad" stroke-width="1.34787" fill="none"/>
    <circle stroke="black" cx="11.088" r="1.66606" cy="3.888"  connectorname="2" id="connector1pad" stroke-width="1.34787" fill="none"/>
    <g  id="copper0">
     <circle stroke="black" cx="3.888" r="1.66606" cy="3.888"  connectorname="1" id="connector0pad" stroke-width="1.34787" fill="none"/>
     <circle stroke="black" cx="11.088" r="1.66606" cy="3.888"  connectorname="2" id="connector1pad" stroke-width="1.34787" fill="none"/>
    </g>
   </g>
  </g>
 </g>
 <g partID="109021">
  <g transform="translate(120.283,13.1858)">
   <g transform="matrix(0,1,-1,0,0,0)">
    <g  id="copper1">
     <g  id="copper0">
      <circle stroke="black" cx="43.2" r="2.052" cy="3.6"  id="connector14pad" fill="none" stroke-width="1.224"/>
      <circle stroke="black" cx="36" r="2.052" cy="3.6"  id="connector15pad" fill="none" stroke-width="1.224"/>
      <circle stroke="black" cx="28.8" r="2.052" cy="3.6"  id="connector16pad" fill="none" stroke-width="1.224"/>
      <circle stroke="black" cx="21.6" r="2.052" cy="3.6"  id="connector17pad" fill="none" stroke-width="1.224"/>
      <circle stroke="black" cx="14.4" r="2.052" cy="3.6"  id="connector18pad" fill="none" stroke-width="1.224"/>
      <circle stroke="black" cx="7.2" r="2.052" cy="3.6"  id="connector19pad" fill="none" stroke-width="1.224"/>
      <circle stroke="black" cx="46.8" r="2.052" cy="10.8"  id="connector25pad" fill="none" stroke-width="1.224"/>
      <circle stroke="black" cx="46.8" r="2.052" cy="18"  id="connector26pad" fill="none" stroke-width="1.224"/>
      <circle stroke="black" cx="46.8" r="2.052" cy="25.2"  id="connector27pad" fill="none" stroke-width="1.224"/>
      <circle stroke="black" cx="46.8" r="2.052" cy="32.4"  id="connector28pad" fill="none" stroke-width="1.224"/>
      <circle stroke="black" cx="46.8" r="2.052" cy="39.6"  id="connector29pad" fill="none" stroke-width="1.224"/>
      <circle stroke="black" cx="38.519" r="2.052" cy="35.64"  id="connector21pad" fill="none" stroke-width="1.224"/>
      <circle stroke="black" cx="38.519" r="2.052" cy="42.84"  id="connector20pad" fill="none" stroke-width="1.224"/>
      <circle stroke="black" cx="46.8" r="2.052" cy="46.8"  id="connector30pad" fill="none" stroke-width="1.224"/>
      <circle stroke="black" cx="46.8" r="2.052" cy="54"  id="connector31pad" fill="none" stroke-width="1.224"/>
      <circle stroke="black" cx="46.8" r="2.052" cy="61.2"  id="connector32pad" fill="none" stroke-width="1.224"/>
      <circle stroke="black" cx="46.8" r="2.052" cy="68.4"  id="connector33pad" fill="none" stroke-width="1.224"/>
      <circle stroke="black" cx="46.8" r="2.052" cy="75.6"  id="connector34pad" fill="none" stroke-width="1.224"/>
      <circle stroke="black" cx="46.8" r="2.052" cy="82.8"  id="connector35pad" fill="none" stroke-width="1.224"/>
      <circle stroke="black" cx="46.8" r="2.052" cy="90"  id="connector36pad" fill="none" stroke-width="1.224"/>
      <circle stroke="black" cx="3.6" r="2.052" cy="90"  id="connector37pad" fill="none" stroke-width="1.224"/>
      <circle stroke="black" cx="3.6" r="2.052" cy="82.8"  id="connector38pad" fill="none" stroke-width="1.224"/>
      <circle stroke="black" cx="3.6" r="2.052" cy="75.6"  id="connector39pad" fill="none" stroke-width="1.224"/>
      <circle stroke="black" cx="3.6" r="2.052" cy="68.4"  id="connector40pad" fill="none" stroke-width="1.224"/>
      <circle stroke="black" cx="3.6" r="2.052" cy="61.2"  id="connector41pad" fill="none" stroke-width="1.224"/>
      <circle stroke="black" cx="3.6" r="2.052" cy="54"  id="connector42pad" fill="none" stroke-width="1.224"/>
      <circle stroke="black" cx="3.6" r="2.052" cy="46.8"  id="connector43pad" fill="none" stroke-width="1.224"/>
      <circle stroke="black" cx="3.6" r="2.052" cy="39.6"  id="connector44pad" fill="none" stroke-width="1.224"/>
      <circle stroke="black" cx="3.6" r="2.052" cy="32.4"  id="connector45pad" fill="none" stroke-width="1.224"/>
      <circle stroke="black" cx="3.6" r="2.052" cy="25.2"  id="connector46pad" fill="none" stroke-width="1.224"/>
      <circle stroke="black" cx="3.6" r="2.052" cy="18"  id="connector47pad" fill="none" stroke-width="1.224"/>
      <circle stroke="black" cx="3.6" r="2.052" cy="10.8"  id="connector48pad" fill="none" stroke-width="1.224"/>
     </g>
    </g>
   </g>
  </g>
 </g>
 <g partID="156750">
  <line stroke="black" y2="65.3778" x1="87.8827" stroke-linecap="round" y1="62.2258" stroke-width="1.728" x2="87.8827"/>
 </g>
 <g partID="192090">
  <line stroke="black" y2="74.4321" x1="37.4257" stroke-linecap="round" y1="74.3908" stroke-width="1.728" x2="80.729"/>
 </g>
 <g partID="166040">
  <line stroke="black" y2="74.3908" x1="23.164" stroke-linecap="round" y1="74.4321" stroke-width="1.728" x2="37.4257"/>
 </g>
 <g partID="160410">
  <line stroke="black" y2="68.4724" x1="80.729" stroke-linecap="round" y1="74.4321" stroke-width="1.728" x2="86.6125"/>
 </g>
 <g partID="160250">
  <line stroke="black" y2="74.4321" x1="8.64765" stroke-linecap="round" y1="59.9157" stroke-width="1.728" x2="23.164"/>
 </g>
 <g partID="160190">
  <line stroke="black" y2="59.9157" x1="8.64765" stroke-linecap="round" y1="38.3914" stroke-width="1.728" x2="8.64765"/>
 </g>
 <g partID="160200">
  <line stroke="black" y2="38.3914" x1="14.2955" stroke-linecap="round" y1="32.7664" stroke-width="1.728" x2="8.64765"/>
 </g>
 <g partID="187320">
  <line stroke="black" y2="22.1648" x1="131.009" stroke-linecap="round" y1="16.8288" stroke-width="1.728" x2="131.063"/>
 </g>
 <g partID="173350">
  <line stroke="black" y2="16.8288" x1="125.327" stroke-linecap="round" y1="11.0541" stroke-width="1.728" x2="131.009"/>
 </g>
 <g partID="174310">
  <line stroke="black" y2="9.5255" x1="93.0227" stroke-linecap="round" y1="9.58145" stroke-width="1.728" x2="66.2126"/>
 </g>
 <g partID="174360">
  <line stroke="black" y2="15.1876" x1="66.2126" stroke-linecap="round" y1="9.5255" stroke-width="1.728" x2="60.6522"/>
 </g>
 <g partID="177370">
  <line stroke="black" y2="57.7458" x1="102.283" stroke-linecap="round" y1="33.2458" stroke-width="1.728" x2="102.283"/>
 </g>
 <g partID="181740">
  <line stroke="black" y2="58.4018" x1="17.4666" stroke-linecap="round" y1="47.1697" stroke-width="1.728" x2="28.6987"/>
 </g>
 <g partID="187260">
  <line stroke="black" y2="54.3565" x1="23.1257" stroke-linecap="round" y1="59.9098" stroke-width="1.728" x2="17.4796"/>
 </g>
 <g partID="187290">
  <line stroke="black" y2="67.1503" x1="37.4257" stroke-linecap="round" y1="67.1503" stroke-width="1.728" x2="30.3662"/>
 </g>
 <g partID="181820">
  <line stroke="black" y2="59.9098" x1="30.3662" stroke-linecap="round" y1="67.1503" stroke-width="1.728" x2="23.1257"/>
 </g>
 <g partID="181790">
  <line stroke="black" y2="67.1503" x1="37.4648" stroke-linecap="round" y1="62.2257" stroke-width="1.728" x2="37.4257"/>
 </g>
 <g partID="192470">
  <line stroke="black" y2="39.8424" x1="51.9067" stroke-linecap="round" y1="45.6098" stroke-width="1.728" x2="46.1393"/>
 </g>
 <g partID="183340">
  <line stroke="black" y2="45.6098" x1="57.2905" stroke-linecap="round" y1="45.5918" stroke-width="1.728" x2="51.9067"/>
 </g>
 <g partID="191720">
  <line stroke="black" y2="67.1769" x1="73.4472" stroke-linecap="round" y1="67.1503" stroke-width="1.728" x2="78.8747"/>
 </g>
 <g partID="191670">
  <line stroke="black" y2="67.1503" x1="67.8666" stroke-linecap="round" y1="61.5697" stroke-width="1.728" x2="73.4472"/>
 </g>
 <g partID="192140">
  <line stroke="black" y2="68.4596" x1="37.4257" stroke-linecap="round" y1="74.3908" stroke-width="1.728" x2="43.3996"/>
 </g>
 <g partID="192230">
  <line stroke="black" y2="61.5697" x1="53.1611" stroke-linecap="round" y1="65.9073" stroke-width="1.728" x2="57.4987"/>
 </g>
 <g partID="192360">
  <line stroke="black" y2="57.7458" x1="59.0827" stroke-linecap="round" y1="47.3779" stroke-width="1.728" x2="59.0827"/>
 </g>
 <g partID="193840">
  <line stroke="black" y2="37.146" x1="37.4257" stroke-linecap="round" y1="24.0693" stroke-width="1.728" x2="17.7483"/>
 </g>
 <g partID="193030">
  <line stroke="black" y2="24.0693" x1="86.3085" stroke-linecap="round" y1="18.3793" stroke-width="1.728" x2="80.6877"/>
 </g>
 <g partID="193730">
  <line stroke="black" y2="24.0693" x1="80.6877" stroke-linecap="round" y1="24.0693" stroke-width="1.728" x2="37.4257"/>
 </g>
 <g partID="193620">
  <line stroke="black" y2="19.0257" x1="87.9282" stroke-linecap="round" y1="31.1288" stroke-width="1.728" x2="87.8898"/>
 </g>
 <g partID="193510">
  <line stroke="black" y2="31.1288" x1="73.4472" stroke-linecap="round" y1="45.6098" stroke-width="1.728" x2="87.9282"/>
 </g>
 <g partID="193400">
  <line stroke="black" y2="45.6098" x1="68.0748" stroke-linecap="round" y1="45.5918" stroke-width="1.728" x2="73.4472"/>
 </g>
 <g partID="194140">
  <line stroke="black" y2="33.2458" x1="73.4827" stroke-linecap="round" y1="36.3258" stroke-width="1.728" x2="73.4827"/>
 </g>
 <g partID="194350">
  <line stroke="black" y2="65.9073" x1="100.699" stroke-linecap="round" y1="61.5697" stroke-width="1.728" x2="96.3611"/>
 </g>
 <g partID="194700">
  <line stroke="black" y2="67.1503" x1="131.009" stroke-linecap="round" y1="52.8503" stroke-width="1.728" x2="116.709"/>
 </g>
 <g partID="194590">
  <line stroke="black" y2="67.1828" x1="116.709" stroke-linecap="round" y1="67.1503" stroke-width="1.728" x2="96.8907"/>
 </g>
 <g partID="194480">
  <line stroke="black" y2="52.8503" x1="131.076" stroke-linecap="round" y1="33.1196" stroke-width="1.728" x2="131.009"/>
 </g>
</svg>
